# xmcd
#
# Track frame offsets:
#	150
#	15047
#	25894
#	40323
#	51443
#	64949
#	77149
#	90599
#	105137
#	119153
#
# Disc length: 1719 seconds
#
# Revision: 1
# Processed by: cddbd v1.5.2PL0 Copyright (c) Steve Scherf et al.
# Submitted via: audiograbber 1.83.01
#
DISCID=7606b50a
DTITLE=lalo mora - 1
DYEAR=2009
DGENRE=rancheras
TTITLE0=lalo mora - Pista  1
TTITLE1=lalo mora - Pista  2
TTITLE2=lalo mora - Pista  3
TTITLE3=lalo mora - Pista  4
TTITLE4=lalo mora - Pista  5
TTITLE5=lalo mora - Pista  6
TTITLE6=lalo mora - Pista  7
TTITLE7=lalo mora - Pista  8
TTITLE8=lalo mora - Pista  9
TTITLE9=lalo mora - Pista 10
EXTD=
EXTT0=
EXTT1=
EXTT2=
EXTT3=
EXTT4=
EXTT5=
EXTT6=
EXTT7=
EXTT8=
EXTT9=
PLAYORDER=
